<svg width="1180" height="221" viewBox="0 0 1180 221" fill="none" xmlns="http://www.w3.org/2000/svg">
<path d="M80.7917 212.709L71.0077 174.113H38.0981L28.4624 212.709H0L54.7012 0L109.254 212.709H80.7917ZM54.7012 86.3415L43.1383 137.232H66.1158L54.7012 86.3415Z" fill="white" fill-opacity="0.01"/>
<path d="M163.859 12.5796H188.912V143.521C188.912 153.623 190.296 161.819 193.063 168.109C195.83 174.398 199.981 177.543 205.515 177.543C211.049 177.543 215.2 174.398 217.967 168.109C220.833 161.819 222.266 153.623 222.266 143.521V12.5796H247.319V146.952C247.319 163.725 245.441 177.639 241.686 188.693C238.029 199.558 233.039 207.658 226.714 212.995C220.389 218.332 213.322 221 205.515 221C197.708 221 190.641 218.332 184.316 212.995C178.09 207.658 173.1 199.558 169.344 188.693C165.687 177.639 163.859 163.725 163.859 146.952V12.5796Z" fill="white" fill-opacity="0.01"/>
<path d="M302.639 56.0362V12.5796H384.765V56.0362H356.302V212.709H331.101V56.0362H302.639Z" fill="white" fill-opacity="0.01"/>
<path d="M427.272 112.644C427.272 97.2057 428.655 83.1013 431.423 70.3312C434.289 57.561 438.242 46.5063 443.282 37.1669C448.421 27.8275 454.351 20.68 461.071 15.7245C467.89 10.5783 475.253 8.00517 483.159 8.00517C491.164 8.00517 498.576 10.5783 505.395 15.7245C512.214 20.68 518.094 27.8275 523.036 37.1669C528.076 46.5063 531.98 57.561 534.747 70.3312C537.613 83.1013 539.046 97.2057 539.046 112.644C539.046 128.083 537.662 142.282 534.895 155.243C532.227 168.204 528.373 179.449 523.332 188.979C518.292 198.509 512.362 205.943 505.543 211.279C498.823 216.426 491.362 218.999 483.159 218.999C475.055 218.999 467.594 216.426 460.774 211.279C453.955 205.943 448.026 198.509 442.985 188.979C437.945 179.449 434.041 168.204 431.274 155.243C428.606 142.282 427.272 128.083 427.272 112.644ZM453.807 112.644C453.807 124.461 454.993 134.944 457.365 144.093C459.836 153.051 463.294 160.103 467.742 165.25C472.189 170.396 477.328 172.969 483.159 172.969C489.089 172.969 494.228 170.396 498.576 165.25C502.924 160.103 506.285 153.051 508.656 144.093C511.127 134.944 512.362 124.461 512.362 112.644C512.362 100.827 511.177 90.4394 508.805 81.4812C506.433 72.3325 503.073 65.185 498.724 60.0388C494.376 54.8926 489.187 52.3195 483.159 52.3195C477.328 52.3195 472.189 54.8926 467.742 60.0388C463.294 65.185 459.836 72.3325 457.365 81.4812C454.993 90.4394 453.807 100.827 453.807 112.644Z" fill="white" fill-opacity="0.01"/>
<path d="M599.423 12.5796H635.446C648.689 12.5796 658.72 18.3928 665.539 30.0194C672.358 41.646 675.768 57.6563 675.768 78.0505C675.768 98.254 672.358 114.264 665.539 126.082C658.72 137.708 648.689 143.521 635.446 143.521H624.476V212.709H599.423V12.5796ZM635.446 52.3195H624.476V103.495H635.446C640.486 103.495 644.439 101.304 647.305 96.9198C650.171 92.536 651.604 86.2462 651.604 78.0505C651.604 69.6641 650.171 63.279 647.305 58.8952C644.439 54.5114 640.486 52.3195 635.446 52.3195Z" fill="white" fill-opacity="0.01"/>
<path d="M736.257 12.5796H761.755V212.709H736.257V12.5796Z" fill="white" fill-opacity="0.01"/>
<path d="M828.213 12.5796H853.266V170.968H894.922V212.709H828.213V12.5796Z" fill="white" fill-opacity="0.01"/>
<path d="M940.587 112.644C940.587 97.2057 941.971 83.1013 944.738 70.3312C947.604 57.561 951.557 46.5063 956.598 37.1669C961.737 27.8275 967.666 20.68 974.386 15.7245C981.206 10.5783 988.568 8.00517 996.474 8.00517C1004.48 8.00517 1011.89 10.5783 1018.71 15.7245C1025.53 20.68 1031.41 27.8275 1036.35 37.1669C1041.39 46.5063 1045.3 57.561 1048.06 70.3312C1050.93 83.1013 1052.36 97.2057 1052.36 112.644C1052.36 128.083 1050.98 142.282 1048.21 155.243C1045.54 168.204 1041.69 179.449 1036.65 188.979C1031.61 198.509 1025.68 205.943 1018.86 211.279C1012.14 216.426 1004.68 218.999 996.474 218.999C988.371 218.999 980.909 216.426 974.09 211.279C967.271 205.943 961.341 198.509 956.301 188.979C951.261 179.449 947.357 168.204 944.59 155.243C941.922 142.282 940.587 128.083 940.587 112.644ZM967.123 112.644C967.123 124.461 968.309 134.944 970.68 144.093C973.151 153.051 976.61 160.103 981.057 165.25C985.505 170.396 990.644 172.969 996.474 172.969C1002.4 172.969 1007.54 170.396 1011.89 165.25C1016.24 160.103 1019.6 153.051 1021.97 144.093C1024.44 134.944 1025.68 124.461 1025.68 112.644C1025.68 100.827 1024.49 90.4394 1022.12 81.4812C1019.75 72.3325 1016.39 65.185 1012.04 60.0388C1007.69 54.8926 1002.5 52.3195 996.474 52.3195C990.644 52.3195 985.505 54.8926 981.057 60.0388C976.61 65.185 973.151 72.3325 970.68 81.4812C968.309 90.4394 967.123 100.827 967.123 112.644Z" fill="white" fill-opacity="0.01"/>
<path d="M1097.87 56.0362V12.5796H1180V56.0362H1151.54V212.709H1126.34V56.0362H1097.87Z" fill="white" fill-opacity="0.01"/>
</svg>
