<svg width="1600" height="313" viewBox="0 0 1600 313" fill="none" xmlns="http://www.w3.org/2000/svg">
<g filter="url(#filter0_d)">
<path d="M-27 158.58C-7.27369 143.476 53.5173 123.44 82.6831 123.44C111.779 123.44 144.425 127.761 170.147 137.68C205.727 151.4 231.568 175.188 270.715 184.417C313.392 194.479 352.524 191.931 393.721 180.054C429.907 169.621 467.031 162.302 505.754 158.58C547.212 154.595 588.899 152.476 628.269 163.977C661.395 173.654 691.007 189.587 726.543 194.752C759.753 199.579 793.586 189.59 822.852 178.676C858.243 165.477 895.01 154.172 929.152 139.402C966.847 123.096 1009.45 108.799 1053.31 103.344C1097.75 97.8156 1143.57 99.698 1186.38 108.856C1214.39 114.847 1244.53 119.108 1273.85 120.282C1288.54 120.871 1302.45 119.157 1316.84 117.239C1337 114.554 1358.57 111.529 1377.94 106.847C1421.72 96.2617 1465.23 81.4539 1510.44 74.3486C1551.53 67.8922 1588.63 55.2751 1630.85 53.2749C1658.94 51.9441 1689.25 45.5098 1717.32 47.318C1740.44 48.808 1771.42 53.8061 1792 62.4633" stroke="black" stroke-width="4" stroke-miterlimit="0" stroke-linejoin="bevel"/>
<path d="M-27 158.58C-7.27369 143.476 53.5173 123.44 82.6831 123.44C111.779 123.44 144.425 127.761 170.147 137.68C205.727 151.4 231.568 175.188 270.715 184.417C313.392 194.479 352.524 191.931 393.721 180.054C429.907 169.621 467.031 162.302 505.754 158.58C547.212 154.595 588.899 152.476 628.269 163.977C661.395 173.654 691.007 189.587 726.543 194.752C759.753 199.579 793.586 189.59 822.852 178.676C858.243 165.477 895.01 154.172 929.152 139.402C966.847 123.096 1009.45 108.799 1053.31 103.344C1097.75 97.8156 1143.57 99.698 1186.38 108.856C1214.39 114.847 1244.53 119.108 1273.85 120.282C1288.54 120.871 1302.45 119.157 1316.84 117.239C1337 114.554 1358.57 111.529 1377.94 106.847C1421.72 96.2617 1465.23 81.4539 1510.44 74.3486C1551.53 67.8922 1588.63 55.2751 1630.85 53.2749C1658.94 51.9441 1689.25 45.5098 1717.32 47.318C1740.44 48.808 1771.42 53.8061 1792 62.4633" stroke="url(#paint0_linear)" stroke-width="4" stroke-miterlimit="0" stroke-linejoin="bevel"/>
</g>
<defs>
<filter id="filter0_d" x="-108.216" y="6.10352e-05" width="1980.99" height="313" filterUnits="userSpaceOnUse" color-interpolation-filters="sRGB">
<feFlood flood-opacity="0" result="BackgroundImageFix"/>
<feColorMatrix in="SourceAlpha" type="matrix" values="0 0 0 0 0 0 0 0 0 0 0 0 0 0 0 0 0 0 127 0"/>
<feOffset dy="35"/>
<feGaussianBlur stdDeviation="40"/>
<feColorMatrix type="matrix" values="0 0 0 0 0.538945 0 0 0 0 0.621278 0 0 0 0 0.908333 0 0 0 1 0"/>
<feBlend mode="normal" in2="BackgroundImageFix" result="effect1_dropShadow"/>
<feBlend mode="normal" in="SourceGraphic" in2="effect1_dropShadow" result="shape"/>
</filter>
<linearGradient id="paint0_linear" x1="497.794" y1="196.244" x2="986.103" y2="196.244" gradientUnits="userSpaceOnUse">
<stop stop-color="#577CFD"/>
<stop offset="1" stop-color="#9421EE"/>
</linearGradient>
</defs>
</svg>
