<svg width="24" height="24" viewBox="0 0 24 24" fill="none" xmlns="http://www.w3.org/2000/svg">
<g clip-path="url(#clip0)">
<path d="M0.0234127 7.05607C0.0796375 5.78085 0.285854 4.90416 0.581261 4.14449C0.886007 3.33812 1.35485 2.61617 1.9691 2.01602C2.56926 1.40652 3.29596 0.932921 4.09299 0.632936C4.85706 0.337529 5.72918 0.131312 7.00439 0.0750879C8.28912 0.0141019 8.69698 0 11.9554 0C15.2139 0 15.6217 0.0141019 16.9017 0.0703262C18.1769 0.126551 19.0536 0.332951 19.8131 0.628174C20.6196 0.932922 21.3416 1.40176 21.9417 2.01602C22.5512 2.61617 23.0247 3.34288 23.3248 4.13991C23.6202 4.90416 23.8265 5.77609 23.8827 7.0513C23.9437 8.33604 23.9578 8.7439 23.9578 12.0023C23.9578 15.2608 23.9437 15.6686 23.8874 16.9486C23.8312 18.2238 23.6248 19.1005 23.3294 19.8602C23.0247 20.6666 22.5512 21.3885 21.9417 21.9887C21.3416 22.5982 20.6149 23.0718 19.8179 23.3718C19.0536 23.6672 18.1817 23.8734 16.9063 23.9296C15.6265 23.986 15.2185 23.9999 11.96 23.9999C8.70156 23.9999 8.2937 23.986 7.01373 23.9296C5.73852 23.8734 4.86182 23.6672 4.10233 23.3718C2.48941 22.7482 1.2142 21.4729 0.590601 19.8602C0.295378 19.096 0.0889778 18.2238 0.032753 16.9486C-0.0234718 15.6686 -0.0375729 15.2608 -0.0375729 12.0023C-0.0375729 8.7439 -0.0328121 8.33604 0.0234127 7.05607ZM2.18466 16.8549C2.23631 18.027 2.43318 18.6599 2.59728 19.0819C3.00056 20.1274 3.83037 20.9572 4.87592 21.3605C5.29788 21.5246 5.93539 21.7215 7.10292 21.7729C8.36879 21.8293 8.74844 21.8433 11.9507 21.8433C15.1529 21.8433 15.5373 21.8293 16.7986 21.7729C17.9707 21.7215 18.6036 21.5246 19.0256 21.3605C19.5459 21.1682 20.0195 20.8634 20.4039 20.4649C20.8024 20.0758 21.1072 19.6069 21.2995 19.0866C21.4636 18.6647 21.6604 18.027 21.7119 16.8596C21.7683 15.5937 21.7822 15.2139 21.7822 12.0117C21.7822 8.80946 21.7683 8.42505 21.7119 7.16394C21.6604 5.99183 21.4636 5.3589 21.2995 4.93694C21.1072 4.41645 20.8024 3.94303 20.3991 3.55843C20.0102 3.15992 19.5413 2.85517 19.0208 2.66306C18.5989 2.49896 17.9612 2.30209 16.7938 2.25044C15.528 2.19422 15.1481 2.18011 11.9461 2.18011C8.7391 2.18011 8.35945 2.19422 7.09816 2.25044C5.92605 2.30209 5.29312 2.49896 4.87116 2.66306C4.35085 2.85517 3.87725 3.15992 3.49284 3.55843C3.09432 3.94761 2.78958 4.41645 2.59728 4.93694C2.43318 5.3589 2.23631 5.99641 2.18466 7.16394C2.12844 8.42981 2.11434 8.80946 2.11434 12.0117C2.11434 15.2139 2.12844 15.589 2.18466 16.8549Z" fill="white"/>
<path d="M11.9556 5.83704C15.3593 5.83704 18.1208 8.59844 18.1208 12.0023C18.1208 15.4062 15.3593 18.1676 11.9556 18.1676C8.55172 18.1676 5.79032 15.4062 5.79032 12.0023C5.79032 8.59844 8.55172 5.83704 11.9556 5.83704ZM11.9556 16.0016C14.1637 16.0016 15.9548 14.2106 15.9548 12.0023C15.9548 9.79399 14.1637 8.00305 11.9556 8.00305C9.74726 8.00305 7.95633 9.79399 7.95633 12.0023C7.95633 14.2106 9.74726 16.0016 11.9556 16.0016Z" fill="white"/>
<path d="M4.10704 5.59336C4.10704 6.3882 4.75151 7.03267 5.54653 7.03267C6.34136 7.03267 6.98584 6.3882 6.98584 5.59336C6.98584 4.79834 6.34136 4.15405 5.54653 4.15405C4.75151 4.15405 4.10704 4.79834 4.10704 5.59336Z" fill="white"/>
</g>
<defs>
<clipPath id="clip0">
<rect width="24" height="24" fill="white" transform="matrix(-1 0 0 1 24 0)"/>
</clipPath>
</defs>
</svg>
