<svg width="201" height="29" viewBox="0 0 201 29" fill="none" xmlns="http://www.w3.org/2000/svg">
<path d="M19.9766 27L17.6006 22.14H9.60858L7.26858 27H0.356578L13.6406 0.215999L26.8886 27H19.9766ZM13.6406 11.088L10.8326 17.496H16.4126L13.6406 11.088ZM29.3492 1.8H35.4332V18.288C35.4332 19.56 35.7692 20.592 36.4412 21.384C37.1132 22.176 38.1212 22.572 39.4652 22.572C40.8092 22.572 41.8172 22.176 42.4892 21.384C43.1852 20.592 43.5332 19.56 43.5332 18.288V1.8H49.6172V18.72C49.6172 20.832 49.1612 22.584 48.2492 23.976C47.3612 25.344 46.1492 26.364 44.6132 27.036C43.0772 27.708 41.3612 28.044 39.4652 28.044C37.5692 28.044 35.8532 27.708 34.3172 27.036C32.8052 26.364 31.5932 25.344 30.6812 23.976C29.7932 22.584 29.3492 20.832 29.3492 18.72V1.8ZM52.2514 7.272V1.8H72.1954V7.272H65.2834V27H59.1634V7.272H52.2514ZM71.7181 14.4C71.7181 12.456 72.0541 10.68 72.7261 9.072C73.4221 7.464 74.3821 6.072 75.6061 4.896C76.8541 3.72 78.2941 2.82 79.9261 2.196C81.5821 1.548 83.3701 1.224 85.2901 1.224C87.2341 1.224 89.0341 1.548 90.6901 2.196C92.3461 2.82 93.7741 3.72 94.9741 4.896C96.1981 6.072 97.1461 7.464 97.8181 9.072C98.5141 10.68 98.8621 12.456 98.8621 14.4C98.8621 16.344 98.5261 18.132 97.8541 19.764C97.2061 21.396 96.2701 22.812 95.0461 24.012C93.8221 25.212 92.3821 26.148 90.7261 26.82C89.0941 27.468 87.2821 27.792 85.2901 27.792C83.3221 27.792 81.5101 27.468 79.8541 26.82C78.1981 26.148 76.7581 25.212 75.5341 24.012C74.3101 22.812 73.3621 21.396 72.6901 19.764C72.0421 18.132 71.7181 16.344 71.7181 14.4ZM78.1621 14.4C78.1621 15.888 78.4501 17.208 79.0261 18.36C79.6261 19.488 80.4661 20.376 81.5461 21.024C82.6261 21.672 83.8741 21.996 85.2901 21.996C86.7301 21.996 87.9781 21.672 89.0341 21.024C90.0901 20.376 90.9061 19.488 91.4821 18.36C92.0821 17.208 92.3821 15.888 92.3821 14.4C92.3821 12.912 92.0941 11.604 91.5181 10.476C90.9421 9.324 90.1261 8.424 89.0701 7.776C88.0141 7.128 86.7541 6.804 85.2901 6.804C83.8741 6.804 82.6261 7.128 81.5461 7.776C80.4661 8.424 79.6261 9.324 79.0261 10.476C78.4501 11.604 78.1621 12.912 78.1621 14.4ZM102.725 1.8H111.473C114.689 1.8 117.125 2.532 118.781 3.996C120.437 5.46 121.265 7.476 121.265 10.044C121.265 12.588 120.437 14.604 118.781 16.092C117.125 17.556 114.689 18.288 111.473 18.288H108.809V27H102.725V1.8ZM111.473 6.804H108.809V13.248H111.473C112.697 13.248 113.657 12.972 114.353 12.42C115.049 11.868 115.397 11.076 115.397 10.044C115.397 8.988 115.049 8.184 114.353 7.632C113.657 7.08 112.697 6.804 111.473 6.804ZM125.154 1.8H131.346V27H125.154V1.8ZM136.685 1.8H142.769V21.744H152.885V27H136.685V1.8ZM153.175 14.4C153.175 12.456 153.511 10.68 154.183 9.072C154.879 7.464 155.839 6.072 157.063 4.896C158.311 3.72 159.751 2.82 161.383 2.196C163.039 1.548 164.827 1.224 166.747 1.224C168.691 1.224 170.491 1.548 172.147 2.196C173.803 2.82 175.231 3.72 176.431 4.896C177.655 6.072 178.603 7.464 179.275 9.072C179.971 10.68 180.319 12.456 180.319 14.4C180.319 16.344 179.983 18.132 179.311 19.764C178.663 21.396 177.727 22.812 176.503 24.012C175.279 25.212 173.839 26.148 172.183 26.82C170.551 27.468 168.739 27.792 166.747 27.792C164.779 27.792 162.967 27.468 161.311 26.82C159.655 26.148 158.215 25.212 156.991 24.012C155.767 22.812 154.819 21.396 154.147 19.764C153.499 18.132 153.175 16.344 153.175 14.4ZM159.619 14.4C159.619 15.888 159.907 17.208 160.483 18.36C161.083 19.488 161.923 20.376 163.003 21.024C164.083 21.672 165.331 21.996 166.747 21.996C168.187 21.996 169.435 21.672 170.491 21.024C171.547 20.376 172.363 19.488 172.939 18.36C173.539 17.208 173.839 15.888 173.839 14.4C173.839 12.912 173.551 11.604 172.975 10.476C172.399 9.324 171.583 8.424 170.527 7.776C169.471 7.128 168.211 6.804 166.747 6.804C165.331 6.804 164.083 7.128 163.003 7.776C161.923 8.424 161.083 9.324 160.483 10.476C159.907 11.604 159.619 12.912 159.619 14.4ZM180.572 7.272V1.8H200.516V7.272H193.604V27H187.484V7.272H180.572Z" fill="white"/>
</svg>
