<svg width="40" height="40" viewBox="0 0 40 40" fill="none" xmlns="http://www.w3.org/2000/svg">
<path d="M2.22837 40C1.82851 40 1.42865 39.8888 1.07321 39.6107C0.00691704 38.832 -0.304086 37.1077 0.317921 35.7728L5.73827 24.4262C6.13813 23.6475 6.80456 23.0913 7.55986 23.0913C8.31515 23.0357 9.02602 23.4806 9.47031 24.2593L11.7806 28.264L16.6678 17.8073C17.0233 17.0286 17.7341 16.4724 18.445 16.4168C19.2003 16.3612 19.9111 16.8061 20.3554 17.5292L24.6206 24.7043L35.8612 1.34356C36.4832 0.00865932 37.8605 -0.380686 38.9268 0.398005C39.9931 1.1767 40.3041 2.90094 39.6821 4.23584L26.7532 31.1007C26.3534 31.8794 25.6869 32.38 24.9761 32.4356C24.2208 32.4912 23.5099 32.0462 23.0656 31.3232L18.8004 24.2037L13.8688 34.6604C13.4689 35.4947 12.8025 35.9953 12.0472 36.0509C11.2919 36.1065 10.581 35.6616 10.1367 34.8829L7.82643 30.8782L4.13882 38.6095C3.73896 39.4994 2.98366 40 2.22837 40Z" fill="white" fill-opacity="0.8"/>
</svg>
