<svg width="40" height="40" viewBox="0 0 40 40" fill="none" xmlns="http://www.w3.org/2000/svg">
<path d="M39.5161 11.2775L32.1674 0.763583C31.8195 0.293686 31.3847 0 30.9064 0H9.07771C8.59939 0 8.12107 0.293686 7.81669 0.763583L0.46799 11.3363C-0.184261 12.2761 -0.140778 13.6858 0.511474 14.6256L18.7745 39.2952C19.1224 39.7651 19.5572 40 19.9921 40C20.4269 40 20.9052 39.7651 21.2096 39.2952L39.4726 14.6256C40.1684 13.6858 40.1684 12.2173 39.5161 11.2775ZM11.9041 14.6843L15.1219 27.3715L5.72949 14.6843H11.9041ZM21.4705 4.69897L24.2534 10.5727H15.7307L18.5136 4.69897H21.4705ZM19.9921 34.2438V34.1263L15.1219 14.6843H24.8622L19.9921 34.1263V34.2438ZM28.08 14.6843H34.2981L24.8622 27.3715L28.08 14.6843ZM34.4286 10.5727H27.8191L25.0361 4.69897H30.1237L34.4286 10.5727ZM9.81693 4.69897H14.9045L12.165 10.5727H5.55555L9.81693 4.69897Z" fill="#D2D2D2"/>
</svg>
