<svg width="40" height="40" viewBox="0 0 40 40" fill="none" xmlns="http://www.w3.org/2000/svg">
<path d="M39.8797 1.70324C39.7928 0.832862 39.1409 0.180076 38.2718 0.093038C27.2771 -0.777343 19.4113 4.5755 14.5006 11.2774C11.8063 10.4071 8.89463 10.7117 6.24373 12.1913C3.67975 13.6275 1.55034 16.0645 0.159706 19.0238C-0.144496 19.7201 -0.0141236 20.5035 0.550822 21.0257C1.07231 21.5479 1.898 21.635 2.54986 21.2868C5.33113 19.8072 8.46006 20.1118 10.3287 21.9831L17.9772 29.6425L18.0207 29.686C19.8893 31.5573 20.1935 34.6907 18.716 37.4759C18.3683 38.1287 18.4987 38.9555 18.9767 39.4778C19.3244 39.8259 19.759 40 20.237 40C20.4977 40 20.7585 39.9565 20.9758 39.8259C23.9309 38.4333 26.3645 36.2574 27.7986 33.7333C29.3196 31.0786 29.6238 28.1628 28.7112 25.4211C30.6667 23.985 32.4485 22.4183 33.926 20.6775C38.5325 15.4117 40.5316 9.01444 39.8797 1.70324ZM5.85262 16.8914C7.72128 15.0636 10.068 13.9321 12.545 14.3673C11.8497 15.5858 11.2848 16.8043 10.7633 18.0229C9.28574 17.196 7.59091 16.8043 5.85262 16.8914ZM23.1921 34.212C23.2355 32.4277 22.8444 30.7304 22.0622 29.2508C23.3225 28.7286 24.5393 28.1193 25.7126 27.4665C26.1472 29.9471 25.0608 32.3406 23.1921 34.212ZM19.7155 26.4221L13.588 20.2859C16.6735 12.0608 24.322 3.26993 36.5335 3.48752C36.9246 18.0664 24.9304 24.3767 19.7155 26.4221ZM30.9709 9.05796C31.4924 9.58019 31.7966 10.32 31.7966 11.0598C31.7966 11.7997 31.4924 12.5395 30.9709 13.0617C30.4495 13.5839 29.7107 13.8886 28.9719 13.8886C28.2331 13.8886 27.4944 13.6275 26.9729 13.0617C26.4514 12.496 26.1472 11.7997 26.1472 11.0598C26.1472 10.32 26.4514 9.58019 26.9729 9.05796C27.4944 8.53573 28.2331 8.2311 28.9719 8.2311C29.7107 8.2311 30.4495 8.53573 30.9709 9.05796ZM6.50448 27.1619C4.50544 29.1638 4.41852 33.1675 4.41852 33.9509C4.41852 34.9083 5.20076 35.6916 6.15682 35.6916H6.20027C7.11288 35.6916 10.9371 35.5611 12.8927 33.6027C14.1095 32.3842 14.3703 31.1221 14.3703 30.2953C14.3703 29.1202 13.8922 27.9887 12.9796 27.0748C10.8068 24.8554 8.06894 25.5517 6.50448 27.1619ZM10.4591 31.1221C10.0245 31.5573 9.06846 31.8619 8.06894 31.9925C8.24277 30.9916 8.54697 30.0341 8.93809 29.6425C9.24229 29.3378 9.50303 29.1638 9.80723 29.1638C10.0245 29.1638 10.2853 29.2943 10.546 29.5554C10.8068 29.8165 10.9371 30.0777 10.9371 30.2953C10.8937 30.5564 10.6764 30.9045 10.4591 31.1221Z" fill="white" fill-opacity="0.8"/>
</svg>
