<?xml version="1.0" encoding="utf-8"?><svg xmlns="http://www.w3.org/2000/svg" xmlns:xlink="http://www.w3.org/1999/xlink"><symbol viewBox="0 0 40 40" id="diamond" xmlns="http://www.w3.org/2000/svg"><path d="M39.516 11.277L32.167.764C31.82.294 31.385 0 30.907 0H9.076c-.478 0-.956.294-1.26.764L.468 11.336c-.652.94-.609 2.35.043 3.29l18.264 24.67c.347.47.782.704 1.217.704.435 0 .913-.235 1.218-.705l18.263-24.67c.695-.94.695-2.408.043-3.348zm-27.612 3.407l3.218 12.688-9.393-12.688h6.175zM21.471 4.7l2.782 5.874h-8.522L18.514 4.7h2.957zm-1.479 29.545v-.118l-4.87-19.442h9.74l-4.87 19.442v.118zm8.088-19.56h6.218l-9.436 12.688 3.218-12.688zm6.349-4.111h-6.61L25.036 4.7h5.088l4.305 5.874zM9.817 4.699h5.088l-2.74 5.874h-6.61l4.262-5.874z"/></symbol><symbol viewBox="0 0 24 24" id="instagram" xmlns="http://www.w3.org/2000/svg"><g clip-path="url(#bclip0)"><path d="M.023 7.056C.08 5.781.286 4.904.581 4.144A5.857 5.857 0 011.97 2.016 5.906 5.906 0 014.093.633C4.857.338 5.729.13 7.004.075 8.29.015 8.697 0 11.955 0c3.259 0 3.667.014 4.947.07 1.275.057 2.152.263 2.911.558a5.856 5.856 0 012.129 1.388 5.9 5.9 0 011.383 2.124c.295.764.502 1.636.558 2.911.06 1.285.075 1.693.075 4.951 0 3.259-.014 3.667-.07 4.947-.057 1.275-.263 2.151-.559 2.911a5.918 5.918 0 01-1.387 2.129 5.906 5.906 0 01-2.124 1.383c-.764.295-1.636.501-2.912.558-1.28.056-1.687.07-4.946.07-3.258 0-3.666-.014-4.946-.07-1.275-.057-2.152-.263-2.912-.558A6.139 6.139 0 01.591 19.86c-.296-.764-.502-1.636-.558-2.911-.056-1.28-.07-1.688-.07-4.947 0-3.258.004-3.666.06-4.946zm2.162 9.799c.051 1.172.248 1.805.412 2.227a3.981 3.981 0 002.279 2.278c.422.165 1.06.361 2.227.413 1.266.056 1.645.07 4.848.07 3.202 0 3.586-.014 4.848-.07 1.172-.052 1.805-.248 2.227-.413.52-.192.994-.497 1.378-.895a3.73 3.73 0 00.895-1.378c.165-.422.361-1.06.413-2.227.056-1.266.07-1.646.07-4.848 0-3.203-.014-3.587-.07-4.848-.052-1.172-.248-1.805-.413-2.227a3.648 3.648 0 00-.9-1.379 3.725 3.725 0 00-1.378-.895c-.422-.164-1.06-.36-2.227-.413-1.266-.056-1.646-.07-4.848-.07-3.207 0-3.587.014-4.848.07-1.172.052-1.805.249-2.227.413a3.69 3.69 0 00-1.378.895 3.73 3.73 0 00-.896 1.379c-.164.422-.36 1.06-.412 2.227-.057 1.266-.07 1.645-.07 4.848 0 3.202.013 3.577.07 4.843z"/><path d="M11.956 5.837a6.167 6.167 0 016.165 6.165 6.167 6.167 0 01-6.165 6.166 6.167 6.167 0 01-6.166-6.166 6.167 6.167 0 016.166-6.165zm0 10.165a4 4 0 10-.002-8 4 4 0 00.002 8zM4.107 5.593a1.44 1.44 0 102.879 0 1.44 1.44 0 00-2.879 0z"/></g><defs><clipPath id="bclip0"><path transform="matrix(-1 0 0 1 24 0)" d="M0 0h24v24H0z"/></clipPath></defs></symbol><symbol viewBox="0 0 21 25" id="left-arrow" xmlns="http://www.w3.org/2000/svg"><path d="M19.423 22.443L2.833 12.38l16.59-10.064v20.127z"/><path d="M19.423 22.443L2.833 12.38l16.59-10.064v20.127z"/><defs><linearGradient id="cpaint0_linear" x1=".904" y1="12.38" x2="50.424" y2="12.38" gradientUnits="userSpaceOnUse"><stop stop-color="#577CFD"/><stop offset="1" stop-color="#9421EE"/></linearGradient></defs></symbol><symbol viewBox="0 0 201 29" id="logo" xmlns="http://www.w3.org/2000/svg"><path d="M19.977 27L17.6 22.14H9.609L7.269 27H.357L13.64.216 26.889 27h-6.912zM13.64 11.088l-2.808 6.408h5.58l-2.772-6.408zM29.349 1.8h6.084v16.488c0 1.272.336 2.304 1.008 3.096.672.792 1.68 1.188 3.024 1.188s2.352-.396 3.024-1.188c.696-.792 1.044-1.824 1.044-3.096V1.8h6.084v16.92c0 2.112-.456 3.864-1.368 5.256-.888 1.368-2.1 2.388-3.636 3.06-1.536.672-3.252 1.008-5.148 1.008s-3.612-.336-5.148-1.008a8.365 8.365 0 01-3.636-3.06c-.888-1.392-1.332-3.144-1.332-5.256V1.8zm22.902 5.472V1.8h19.944v5.472h-6.912V27h-6.12V7.272h-6.912zM71.718 14.4c0-1.944.336-3.72 1.008-5.328.696-1.608 1.656-3 2.88-4.176a13.006 13.006 0 014.32-2.7c1.656-.648 3.444-.972 5.364-.972 1.944 0 3.744.324 5.4.972 1.656.624 3.084 1.524 4.284 2.7a12.297 12.297 0 012.844 4.176c.696 1.608 1.044 3.384 1.044 5.328 0 1.944-.336 3.732-1.008 5.364a12.16 12.16 0 01-2.808 4.248c-1.224 1.2-2.664 2.136-4.32 2.808-1.632.648-3.444.972-5.436.972-1.968 0-3.78-.324-5.436-.972-1.656-.672-3.096-1.608-4.32-2.808a12.592 12.592 0 01-2.844-4.248c-.648-1.632-.972-3.42-.972-5.364zm6.444 0c0 1.488.288 2.808.864 3.96a6.733 6.733 0 002.52 2.664c1.08.648 2.328.972 3.744.972 1.44 0 2.688-.324 3.744-.972a6.56 6.56 0 002.448-2.664c.6-1.152.9-2.472.9-3.96s-.288-2.796-.864-3.924c-.576-1.152-1.392-2.052-2.448-2.7-1.056-.648-2.316-.972-3.78-.972-1.416 0-2.664.324-3.744.972-1.08.648-1.92 1.548-2.52 2.7-.576 1.128-.864 2.436-.864 3.924zm24.563-12.6h8.748c3.216 0 5.652.732 7.308 2.196 1.656 1.464 2.484 3.48 2.484 6.048 0 2.544-.828 4.56-2.484 6.048-1.656 1.464-4.092 2.196-7.308 2.196h-2.664V27h-6.084V1.8zm8.748 5.004h-2.664v6.444h2.664c1.224 0 2.184-.276 2.88-.828.696-.552 1.044-1.344 1.044-2.376 0-1.056-.348-1.86-1.044-2.412-.696-.552-1.656-.828-2.88-.828zM125.154 1.8h6.192V27h-6.192V1.8zm11.531 0h6.084v19.944h10.116V27h-16.2V1.8zm16.49 12.6c0-1.944.336-3.72 1.008-5.328.696-1.608 1.656-3 2.88-4.176a13.006 13.006 0 014.32-2.7c1.656-.648 3.444-.972 5.364-.972 1.944 0 3.744.324 5.4.972 1.656.624 3.084 1.524 4.284 2.7a12.297 12.297 0 012.844 4.176c.696 1.608 1.044 3.384 1.044 5.328 0 1.944-.336 3.732-1.008 5.364a12.16 12.16 0 01-2.808 4.248c-1.224 1.2-2.664 2.136-4.32 2.808-1.632.648-3.444.972-5.436.972-1.968 0-3.78-.324-5.436-.972-1.656-.672-3.096-1.608-4.32-2.808a12.592 12.592 0 01-2.844-4.248c-.648-1.632-.972-3.42-.972-5.364zm6.444 0c0 1.488.288 2.808.864 3.96a6.733 6.733 0 002.52 2.664c1.08.648 2.328.972 3.744.972 1.44 0 2.688-.324 3.744-.972a6.56 6.56 0 002.448-2.664c.6-1.152.9-2.472.9-3.96s-.288-2.796-.864-3.924c-.576-1.152-1.392-2.052-2.448-2.7-1.056-.648-2.316-.972-3.78-.972-1.416 0-2.664.324-3.744.972-1.08.648-1.92 1.548-2.52 2.7-.576 1.128-.864 2.436-.864 3.924zm20.953-7.128V1.8h19.944v5.472h-6.912V27h-6.12V7.272h-6.912z"/></symbol><symbol viewBox="0 0 20 25" id="right-arrow" xmlns="http://www.w3.org/2000/svg"><path d="M1.3 2.557L17.89 12.62 1.3 22.683V2.557z"/></symbol><symbol viewBox="0 0 40 40" id="rocket" xmlns="http://www.w3.org/2000/svg"><path d="M39.88 1.703a1.767 1.767 0 00-1.608-1.61C27.277-.777 19.412 4.575 14.5 11.277c-2.695-.87-5.606-.565-8.257.914C3.68 13.627 1.55 16.064.16 19.024c-.304.696-.174 1.48.39 2.002.522.522 1.348.609 2 .26 2.781-1.479 5.91-1.174 7.779.697l7.648 7.66.044.043c1.868 1.871 2.172 5.005.695 7.79-.348.653-.217 1.48.26 2.002a1.74 1.74 0 001.261.522c.26 0 .522-.044.739-.174 2.955-1.393 5.389-3.569 6.823-6.093 1.52-2.654 1.825-5.57.912-8.312 1.956-1.436 3.738-3.003 5.215-4.744 4.606-5.265 6.606-11.663 5.954-18.974zM5.853 16.891c1.868-1.827 4.215-2.959 6.692-2.524-.695 1.219-1.26 2.437-1.782 3.656a9.096 9.096 0 00-4.91-1.132zm17.34 17.321c.042-1.784-.349-3.482-1.13-4.961a35.41 35.41 0 003.65-1.785c.434 2.481-.652 4.875-2.52 6.746zm-3.478-7.79l-6.127-6.136C16.674 12.06 24.322 3.27 36.533 3.488c.392 14.578-11.603 20.889-16.818 22.934zM30.971 9.058c.521.522.826 1.262.826 2.002 0 .74-.305 1.48-.826 2.002a2.864 2.864 0 01-2 .827c-.738 0-1.477-.261-1.998-.827-.522-.566-.826-1.262-.826-2.002 0-.74.304-1.48.826-2.002a2.864 2.864 0 011.999-.827c.739 0 1.477.305 1.999.827zM6.504 27.162C4.505 29.164 4.42 33.167 4.42 33.95c0 .957.782 1.74 1.738 1.74H6.2c.913 0 4.737-.13 6.693-2.088 1.216-1.219 1.477-2.48 1.477-3.308 0-1.175-.478-2.306-1.39-3.22-2.173-2.22-4.911-1.523-6.476.087zm3.955 3.96c-.434.435-1.39.74-2.39.87.174-1 .478-1.958.87-2.35.303-.304.564-.478.868-.478.217 0 .478.13.739.391.26.262.391.523.391.74-.043.261-.26.61-.478.827z" fill-opacity=".8"/></symbol><symbol viewBox="0 0 40 40" id="star" xmlns="http://www.w3.org/2000/svg"><path d="M31.23 39.987a1.88 1.88 0 01-1.001-.285L20 32.704 9.771 39.702a1.788 1.788 0 01-2.046-.048 2.039 2.039 0 01-.682-2.047l3.228-11.901-9.638-8.521C.088 16.709-.14 15.9.088 15.138c.227-.762.863-1.238 1.59-1.333l11.503-.857 5.182-11.853A1.753 1.753 0 0120 0c.727 0 1.364.428 1.637 1.095l5.182 11.853 11.502.857c.728.048 1.364.571 1.592 1.333.227.714 0 1.523-.546 2.047l-9.593 8.473 3.228 11.901a1.876 1.876 0 01-.682 2.047 1.795 1.795 0 01-1.09.381zM20 28.562c.364 0 .682.095 1 .286l7.183 4.903-2.227-8.235a1.955 1.955 0 01.59-1.952l7.047-6.236-8.092-.667c-.682-.047-1.228-.476-1.546-1.095L20 6.474l-3.955 9.092a1.834 1.834 0 01-1.546 1.095l-8.092.62 7.046 6.235c.546.476.773 1.238.591 1.952l-2.227 8.283L19 28.895a1.587 1.587 0 011-.333z" fill-opacity=".8"/></symbol><symbol viewBox="0 0 24 24" id="telegram" xmlns="http://www.w3.org/2000/svg"><g clip-path="url(#hclip0)"><path d="M23.76 3.02L.375 11.47a.564.564 0 00-.128.997l3.496 2.386L19.61 6.486 6.178 16.516v4.062a.35.35 0 00.543.291l2.958-1.962 2.914 1.987a.57.57 0 00.804-.173l10.577-17.44c.088-.143-.054-.32-.212-.262z"/></g><defs><clipPath id="hclip0"><path d="M0 0h24v24H0z"/></clipPath></defs></symbol><symbol viewBox="0 0 40 40" id="top" xmlns="http://www.w3.org/2000/svg"><path d="M2.228 40c-.4 0-.8-.111-1.155-.39-1.066-.778-1.377-2.502-.755-3.837l5.42-11.347c.4-.778 1.067-1.335 1.822-1.335.755-.055 1.466.39 1.91 1.168l2.31 4.005 4.888-10.457c.355-.778 1.066-1.335 1.777-1.39.755-.056 1.466.39 1.91 1.112l4.266 7.175 11.24-23.36c.622-1.335 2-1.725 3.066-.946 1.066.779 1.377 2.503.755 3.838L26.753 31.1c-.4.778-1.066 1.279-1.777 1.335-.755.055-1.466-.39-1.91-1.113l-4.266-7.12-4.93 10.458c-.4.835-1.066 1.335-1.822 1.39-.755.056-1.466-.388-1.91-1.167l-2.31-4.005-3.688 7.731C3.739 39.5 2.984 40 2.229 40z" fill-opacity=".8"/></symbol></svg>