<svg width="40" height="40" viewBox="0 0 40 40" fill="none" xmlns="http://www.w3.org/2000/svg">
<path d="M31.2292 39.9871C30.8655 39.9871 30.5473 39.8919 30.229 39.7015L20 32.7037L9.77098 39.7015C9.13451 40.1299 8.31618 40.0823 7.72517 39.6539C7.13416 39.1778 6.86139 38.3686 7.04324 37.6069L10.2711 25.706L0.633051 17.1849C0.0875026 16.7089 -0.139809 15.8996 0.0875026 15.138C0.314814 14.3763 0.951287 13.9003 1.67868 13.8051L13.1807 12.9482L18.3634 1.09489C18.6361 0.428433 19.2726 0 20 0C20.7274 0 21.3639 0.428433 21.6366 1.09489L26.8193 12.9482L38.3213 13.8051C39.0487 13.8527 39.6852 14.3763 39.9125 15.138C40.1398 15.852 39.9125 16.6613 39.3669 17.1849L29.7744 25.6584L33.0022 37.5593C33.2295 38.321 32.9568 39.1302 32.3203 39.6063C32.0021 39.8443 31.6384 39.9871 31.2292 39.9871ZM20 28.5622C20.3637 28.5622 20.6819 28.6574 21.0002 28.8478L28.1832 33.751L25.9556 25.5156C25.7737 24.8015 26.001 24.0399 26.5466 23.5638L33.5932 17.3277L25.5009 16.6613C24.819 16.6137 24.2735 16.1853 23.9552 15.5664L20 6.4741L16.0448 15.5664C15.772 16.1853 15.181 16.6137 14.4991 16.6613L6.40677 17.2801L13.4534 23.5162C13.999 23.9923 14.2263 24.7539 14.0444 25.468L11.8168 33.751L18.9998 28.8954C19.3181 28.6574 19.6363 28.5622 20 28.5622Z" fill="white" fill-opacity="0.8"/>
</svg>
